<?xml version="1.0" encoding="utf-8"?>
<!-- Generator: Adobe Illustrator 15.0.0, SVG Export Plug-In  -->
<!DOCTYPE svg PUBLIC "-//W3C//DTD SVG 1.1//EN" "http://www.w3.org/Graphics/SVG/1.1/DTD/svg11.dtd" [
	<!ENTITY ns_flows "http://ns.adobe.com/Flows/1.0/">
]>
<svg version="1.1"
	 xmlns="http://www.w3.org/2000/svg" xmlns:xlink="http://www.w3.org/1999/xlink" xmlns:a="http://ns.adobe.com/AdobeSVGViewerExtensions/3.0/"
	 x="0px" y="0px" width="948px" height="185px" viewBox="111 327.89 948 185"
	 overflow="visible" enable-background="new 111 327.89 948 185" xml:space="preserve">
<defs>
</defs>
<g>
	<defs>
		<rect id="SVGID_1_" width="1190.55" height="841.89"/>
	</defs>
	<clipPath id="SVGID_2_">
		<use xlink:href="#SVGID_1_"  overflow="visible"/>
	</clipPath>
	<path clip-path="url(#SVGID_2_)" d="M217.39,417.445c0.687-8.505,2.344-16.963,4.552-25.252c4.518-1.39,8.901-2.992,13.076-4.809
		c16.513-7.187,31.946-21.811,28.766-41.339c-1.734-10.646-14.07-12.822-22.503-9.41c-11.076,4.482-17.577,16.041-22.375,26.375
		c-2.947,6.346-5.358,12.813-7.33,19.367c-11.818,2.79-24.271,3.623-35.921,2.999c-19.367-1.035-40.276-9.06-53.235-23.796
		c-5.333-6.064-14.139,2.812-8.839,8.839c22.849,25.982,60.974,31.789,94.631,25.225c-7.653,36.735-2.691,75.667,4.583,112.311
		c1.568,7.903,13.616,4.548,12.053-3.323C219.172,476.042,215.035,446.638,217.39,417.445 M244.109,349.059
		c1.322-0.802,5.875-2.919,7.164-1.041c1.649,2.4,0.193,7.78-0.83,10.192c-3.258,7.682-10.431,12.633-17.56,16.385
		c-2.111,1.11-4.287,2.126-6.513,3.053C229.792,367.587,235.002,354.585,244.109,349.059"/>
	<path clip-path="url(#SVGID_2_)" d="M639.219,441.006c8.517,0.193,17.438-2.172,25.555-4.52
		c9.548-2.762,18.856-6.667,27.505-11.562c16.229-9.187,31.142-23.962,33.767-43.189c2.466-18.072-5.121-39.744-22.098-48.399
		c-15.251-7.775-33.399-3.331-47.757,4.254c-15.396,8.133-28.358,21.456-35.227,37.483c-0.896-1.823-1.878-3.59-2.977-5.271
		c-4.39-6.717-15.217-0.461-10.793,6.309c4.446,6.805,6.86,15.09,8.496,23.465c-1.07-0.37-2.146-0.725-3.232-1.053
		c-7.339-2.217-15.903-2.296-21.471,3.728c-5.753,6.224-5.593,14.955-0.293,21.314c5.436,6.523,14.098,10.014,21.925,12.656
		c2.809,0.949,5.698,1.758,8.625,2.442c0.464,3.815,0.922,7.632,1.374,11.449c0.015,0.141,0.03,0.281,0.045,0.423
		c2.009,18.877,4.142,37.743,6.408,56.591c0.946,7.869,13.366,8.046,12.5,0c-2.064-19.171-4.23-38.332-6.508-57.479
		c-0.018-0.144-0.034-0.287-0.053-0.432c-0.298-2.834-0.61-5.667-0.9-8.502C635.816,440.858,637.521,440.968,639.219,441.006
		 M632.869,428.008c-0.236-2.43-0.484-4.859-0.712-7.29c4.935,2.456,9.886,4.896,14.934,7.055
		C642.305,428.595,637.582,428.564,632.869,428.008 M635.173,374.221c7.923-14.219,22.502-25.411,37.917-30.317
		c14.626-4.656,29.159-1.568,36.577,12.711c9.113,17.54,3.071,35.899-10.866,48.486c-8.27,7.469-18.456,12.891-29.172,16.755
		c-13.912-2.651-26.16-9.697-38.778-15.821c-0.311-3.832-0.591-7.666-0.818-11.503C629.6,387.25,631.646,380.552,635.173,374.221
		 M601.74,417.032c-3.123-2.668-3.941-5.166-0.434-7.154c0.707-0.401,3.18-0.363,5.065,0.002c3.59,0.696,7.093,2.066,10.437,3.516
		c0.392,0.17,0.781,0.35,1.173,0.524c0.103,0.722,0.205,1.44,0.307,2.149c0.446,3.091,0.869,6.185,1.278,9.281
		C613.191,423.65,606.615,421.197,601.74,417.032"/>
	<path clip-path="url(#SVGID_2_)" d="M1048.436,495.561c-4.571,2.572-9.323,4.086-13.847,4.11
		c-4.241,0.024-7.657-1.149-11.769-3.666c-8.858-5.421-15.388-16.151-20.287-26.34c-0.806-1.676-1.576-3.374-2.319-5.088
		c3.846-7.762,6.999-15.797,9.684-23.402c4.997-14.15,7.456-28.333,8.913-43.223c1.477-15.098,2.237-31.019-1.216-45.912
		c-2.803-12.091-11.813-22.755-25.252-17.847c-9.47,3.459-13.866,12.627-16.327,21.821c-3.254,12.158-3.582,25.21-3.123,37.713
		c0.864,23.5,5.002,47.934,13.626,70.188c-4.3,7.335-9.33,14.107-15.167,19.824c-7.158,7.01-15.327,10.448-25.329,10.303
		c-4.352-0.062-8.613-0.837-12.75-2.094c6.027-13.774,3.998-30.765-0.641-44.53c-5.775-17.134-17.564-33.771-36.087-38.056
		c-11.406-2.638-23.793,0.877-30.745,9.206c-0.361,0.287-0.712,0.63-1.046,1.043c-12.26,15.166-17.417,34.354-14.077,53.602
		c0.013,0.073,0.028,0.145,0.042,0.218c-2.252,10.089-11.133,16.515-20.594,19.497c-10.658,3.359-22.18,0.012-32.302-4.282
		c3.603-11.012,2.412-23.665-0.481-34.678c-4.18-15.907-13.12-31.602-26.693-41.231c-13.495-9.575-33.822-7.426-44.207,5.773
		c-0.352,0.283-0.695,0.622-1.021,1.027c-11.874,14.717-15.777,33.305-12.156,51.752c0.061,0.313,0.144,0.623,0.211,0.937
		c-3.22,5.83-7.43,11.061-11.825,16.039c-4.276,4.844-8.998,10.006-14.733,13.132c-7.079,3.857-0.771,14.651,6.309,10.793
		c6.679-3.639,12.225-9.497,17.264-15.086c2.892-3.207,5.731-6.583,8.331-10.121c5.391,10.241,13.878,18.817,24.717,23.136
		c15.188,6.053,37.604,3.084,48.278-10.226c0.062-0.077,0.118-0.156,0.179-0.233c0.634,0.266,1.266,0.539,1.9,0.795
		c13.984,5.645,28.697,8.789,43.183,3.266c7.544-2.878,14.657-7.698,19.598-14.099c6.104,10.416,15.977,18.34,28.05,21.688
		c14.387,3.989,30.884,1.689,41.345-8.698c14.698,5.223,30.751,5.942,44.524-2.46c8.956-5.464,16.164-13.362,22.078-22.328
		c0.411,0.823,0.809,1.655,1.234,2.469c5.78,11.039,13.899,22.132,25.207,27.977c11.633,6.011,24.488,4.357,35.631-1.914
		C1061.768,502.401,1055.469,491.602,1048.436,495.561 M750.341,419.178c12.923-2.257,24.097,13.407,29.405,23.606
		c6.206,11.93,9.982,27.126,6.643,40.45c-15.973-8.35-30.448-19.459-41.796-33.535c-4.375-5.426-9.22-12.645-9.281-19.771
		C735.254,423.104,744.308,420.231,750.341,419.178 M754.294,500.237c-25.035-4.111-33.932-33.133-27.904-55.804
		c3.736,7.477,9.405,14.411,13.731,19.231c11.049,12.315,24.895,22.545,39.726,30.295
		C773.229,499.714,763.136,501.689,754.294,500.237 M890.814,421.046c8.567,0.527,16.283,6.459,21.196,13.123
		c9.444,12.809,16.295,37.477,9.539,52.876c-3.856-2.03-7.554-4.352-11.046-6.772c-11.141-7.724-20.701-17.838-29.169-28.353
		c-4.862-6.036-11.436-15.307-7.44-23.414C876.972,422.262,884.464,420.656,890.814,421.046 M899.483,500.565
		c-16.903,0.468-30.69-9.513-35.558-25.612c-2.629-8.694-2.499-18.163-0.128-27.028c2.798,5.552,6.854,10.608,10.687,15.281
		c8.646,10.544,18.619,19.93,29.71,27.859c2.868,2.051,5.921,3.987,9.107,5.753C909.732,499.051,905.185,500.407,899.483,500.565
		 M985.248,385.403c0.016-5.866,0.426-12.914,1.157-17.853c0.38-2.564,0.89-5.108,1.513-7.624c0.283-1.147,0.615-2.282,0.967-3.41
		c0.169-0.542,1.066-2.946,0.986-2.824c0.727-1.681,1.605-3.293,2.64-4.804c0.028-0.04,0.046-0.067,0.067-0.101
		c0.262-0.316,0.543-0.615,0.825-0.911c0.271-0.286,0.564-0.55,0.857-0.813c0.071-0.045,0.153-0.097,0.259-0.167
		c0.777-0.511,1.182-0.661,1.801-0.887c0.614-0.225,1.248-0.381,1.882-0.533c0.094-0.022,0.165-0.04,0.234-0.057
		c0.094,0.001,0.229-0.002,0.43-0.012c1.511-0.081,1.832,0.159,2.926,1.251c0.824,0.824,1.976,3.011,2.538,4.551
		c1.128,3.093,1.752,6.367,2.247,9.612c1.106,7.233,0.974,14.77,0.737,22.066c-0.417,12.892-1.644,25.704-4.436,38.233
		c-1.996,8.96-4.864,18.279-8.641,27.273C987.91,428.07,985.191,406.178,985.248,385.403"/>
	<path clip-path="url(#SVGID_2_)" d="M489.552,494.066c-16.962,7.624-35.921,6.109-48.502-8.407
		c-0.322-0.371-0.608-0.765-0.913-1.147c7.911-6.188,15.092-13.333,21.113-21.353c7.471-9.95,13.602-21.399,10.564-34.17
		c-2.494-10.486-12.346-15.696-22.471-13.945c-10.738,1.857-19.496,12.72-24.257,21.836c-7.23,13.848-7.151,29.965-1.251,43.872
		c-1.747,1.139-3.51,2.25-5.303,3.309c-7.937,4.685-17.926,10.026-26.886,10.884c-5.255,0.502-8.432-0.675-11.265-3.466
		c-3.035-2.989-4.842-7.565-6.291-12.315c-3.705-12.146-4.611-24.968-7.44-37.317c-2.587-11.293-7.168-22.638-18.487-27.407
		c-14.738-6.211-28.781,5.78-36.487,17.078c-5.766,8.453-9.82,17.682-13.169,27.22c-0.494-5.103-1.096-10.197-1.737-15.272
		c-0.206-1.63-0.42-3.26-0.639-4.891c2.986-5.521,5.791-11.125,8.285-16.841c8.136-18.64,14.895-38.72,16.151-59.152
		c0.49-7.955-0.326-16.483-4.351-23.511c-5.532-9.66-18.107-14.109-27.104-6.435c-12.126,10.342-12.195,30.375-12.048,44.931
		c0.166,16.633,2.707,33.3,5.001,49.75c0.408,2.925,0.814,5.85,1.211,8.776c-4.825,8.556-10.066,16.922-15.098,25.236
		c-5.022,8.299-10.304,16.523-16.459,24.034c-4.629,5.648-10.373,12.303-17.654,14.404c-7.73,2.23-4.439,14.294,3.323,12.054
		c8.752-2.526,15.681-9.034,21.558-15.718c7.363-8.375,13.504-17.835,19.325-27.316c2.49-4.056,5.003-8.132,7.486-12.237
		c0.367,3.624,0.689,7.253,0.94,10.89c0.839,12.16,1.592,25.547-2.762,37.169c-2.842,7.587,9.19,10.741,12.054,3.323
		c5.937-15.376,9.406-31.629,15.176-47.089c4.647-12.452,12.087-32.338,26.947-35.234c2.491-0.486,3.673-0.094,5.687,0.51
		c1.533,0.46,2.453,1.136,3.998,2.734c0.775,0.802,2.122,2.846,3.186,4.981c0.786,1.576,1.799,4.541,2.551,7.169
		c3.487,12.197,4.374,24.982,7.366,37.297c2.813,11.58,7.906,22.91,19.51,27.711c6.009,2.484,13.196,1.623,19.299,0.054
		c10.683-2.746,21.04-8.404,30.313-14.396c0.895,1.227,1.836,2.423,2.836,3.576c16.139,18.62,41.896,19.103,63.003,9.614
		C503.203,501.559,496.841,490.79,489.552,494.066 M289.811,366.438c0.333-5.858,3.302-33.137,14.341-22.725
		c4.375,4.128,4.194,12.981,3.915,18.868c-0.871,18.432-7.522,37.279-15.017,54.149
		C290.735,400.023,288.855,383.239,289.811,366.438 M436.897,441.298c3.104-5.611,13.755-19.452,20.954-12.623
		c3.004,2.849,2.6,8.096,1.793,11.717c-1.456,6.537-6.074,12.579-10.194,17.701c-4.543,5.648-9.744,10.693-15.365,15.229
		C430.588,462.882,431.547,450.969,436.897,441.298"/>
</g>
</svg>
